<?xml version="1.0" encoding="utf-8"?>
<!-- Generator: Adobe Illustrator 24.2.3, SVG Export Plug-In . SVG Version: 6.00 Build 0)  -->
<svg version="1.1" id="Layer_1" xmlns="http://www.w3.org/2000/svg" xmlns:xlink="http://www.w3.org/1999/xlink" x="0px" y="0px"
	 viewBox="0 0 62.4 62.4" style="enable-background:new 0 0 62.4 62.4;" xml:space="preserve">
<style type="text/css">
	.st0{fill:#A3A3A3;}
</style>
<path class="st0" d="M31.2,0C14,0,0,14,0,31.2s14,31.2,31.2,31.2s31.2-14,31.2-31.2S48.4,0,31.2,0z M31.2,60.9
	c-16.4,0-29.8-13.3-29.8-29.8c0-16.4,13.3-29.8,29.8-29.8C47.6,1.3,61,14.6,61,31.1C60.9,47.6,47.6,60.9,31.2,60.9z"/>
<path d="M43.5,42.6l-6.8-6.8c1.6-1.8,2.6-4.2,2.6-6.8c0-5.7-4.6-10.3-10.3-10.3c-5.7,0-10.3,4.6-10.3,10.3c0,5.7,4.6,10.3,10.3,10.3
	c2.6,0,4.9-1,6.8-2.5l6.8,6.8c0.1,0.1,0.3,0.2,0.5,0.2c0.2,0,0.3-0.1,0.5-0.2C43.8,43.3,43.8,42.9,43.5,42.6z M20,29c0-5,4-9,9-9
	c5,0,9,4,9,9c0,5-4,9-9,9C24.1,38,20,33.9,20,29z"/>
</svg>
