<?xml version="1.0" encoding="utf-8"?>
<!-- Generator: Adobe Illustrator 24.2.3, SVG Export Plug-In . SVG Version: 6.00 Build 0)  -->
<svg version="1.1" id="Layer_1" xmlns="http://www.w3.org/2000/svg" xmlns:xlink="http://www.w3.org/1999/xlink" x="0px" y="0px"
	 viewBox="0 0 62.4 62.4" style="enable-background:new 0 0 62.4 62.4;" xml:space="preserve">
<style type="text/css">
	.st0{fill:#A3A3A3;}
</style>
<path d="M40.1,25.8c-0.3-0.8-1-1.1-1.8-1.1c-4.8,0-9.5,0-14.3,0c-0.2,0-0.4,0-0.5,0.1c-1.4,0.4-1.9,2-0.9,3.1c2,2.2,4,4.4,6,6.6
	c0.1,0.1,0.2,0.2,0.2,0.4c0,1,0,2,0,3.1c0,1,0,2,0,3.1c0,0.1,0,0.2,0,0.2c0.1,0.5,0.7,0.7,1.1,0.3c1.1-0.9,2.2-1.7,3.3-2.6
	c0.2-0.2,0.3-0.4,0.3-0.6c0-1.2,0-2.3,0-3.5c0-0.2,0.1-0.3,0.2-0.4c2-2.2,4-4.4,6-6.6C40.3,27.2,40.4,26.5,40.1,25.8z M38.7,27
	c-2.1,2.3-4.2,4.6-6.2,6.9c-0.2,0.2-0.3,0.4-0.3,0.7c0,1.1,0,2.3,0,3.4c0,0.1,0,0.2-0.1,0.3c-0.6,0.5-1.2,1-1.8,1.5c0,0,0,0-0.1,0
	c0-0.1,0-0.2,0-0.2c0-1.6,0-3.3,0-4.9c0-0.3-0.1-0.5-0.3-0.7c-2.1-2.3-4.2-4.6-6.2-6.9c-0.2-0.2-0.3-0.4-0.2-0.7
	c0.1-0.3,0.3-0.3,0.6-0.3c4.7,0,9.4,0,14.1,0c0.3,0,0.5,0.1,0.6,0.3C39,26.5,38.8,26.8,38.7,27z"/>
<path class="st0" d="M31.2,0C14,0,0,14,0,31.2s14,31.2,31.2,31.2c17.2,0,31.2-14,31.2-31.2S48.4,0,31.2,0z M31.2,60.9
	c-16.4,0-29.8-13.3-29.8-29.8c0-16.4,13.3-29.8,29.8-29.8c16.4,0,29.8,13.3,29.8,29.8C60.9,47.6,47.6,60.9,31.2,60.9z"/>
</svg>
