<?xml version="1.0" encoding="utf-8"?>
<!-- Generator: Adobe Illustrator 24.2.3, SVG Export Plug-In . SVG Version: 6.00 Build 0)  -->
<svg version="1.1" id="Layer_1" xmlns="http://www.w3.org/2000/svg" xmlns:xlink="http://www.w3.org/1999/xlink" x="0px" y="0px"
	 viewBox="0 0 62.4 62.4" style="enable-background:new 0 0 62.4 62.4;" xml:space="preserve">
<style type="text/css">
	.st0{fill:#A3A3A3;}
</style>
<path d="M20.4,31c0.1-0.2,0.2-0.4,0.3-0.6c0.2-0.2,0.5-0.3,0.9-0.3c2.7,0,5.5,0,8.2,0c0.2,0,0.2,0,0.2-0.2c0-2.7,0-5.4,0-8.1
	c0-0.7,0.2-1.1,0.9-1.3c0.1,0,0.3,0,0.4,0c0.2,0.1,0.4,0.2,0.6,0.3c0.2,0.2,0.3,0.5,0.3,0.9c0,2.7,0,5.5,0,8.2c0,0.2,0,0.3,0.2,0.2
	c2.7,0,5.5,0,8.2,0c0.6,0,1,0.3,1.2,0.9c0.1,0.6-0.3,1.2-0.8,1.3c-0.1,0-0.3,0-0.4,0c-2.7,0-5.5,0-8.2,0c-0.2,0-0.2,0-0.2,0.2
	c0,2.8,0,5.5,0,8.3c0,0.6-0.3,1-0.8,1.1c-0.6,0.2-1.3-0.2-1.4-0.9c0-0.1,0-0.2,0-0.3c0-2.7,0-5.5,0-8.2c0-0.2,0-0.2-0.2-0.2
	c-2.7,0-5.4,0-8.1,0c-0.7,0-1.1-0.2-1.3-0.9C20.4,31.3,20.4,31.1,20.4,31z"/>
<path class="st0" d="M31.2,0C14,0,0,14,0,31.2s14,31.2,31.2,31.2c17.2,0,31.2-14,31.2-31.2S48.4,0,31.2,0z M31.2,60.9
	c-16.4,0-29.8-13.3-29.8-29.8c0-16.4,13.3-29.8,29.8-29.8c16.4,0,29.8,13.3,29.8,29.8C60.9,47.6,47.6,60.9,31.2,60.9z"/>
</svg>
