<?xml version="1.0" encoding="utf-8"?>
<!-- Generator: Adobe Illustrator 24.2.3, SVG Export Plug-In . SVG Version: 6.00 Build 0)  -->
<svg version="1.1" id="Layer_1" xmlns="http://www.w3.org/2000/svg" xmlns:xlink="http://www.w3.org/1999/xlink" x="0px" y="0px"
	 viewBox="0 0 62.4 62.4" style="enable-background:new 0 0 62.4 62.4;" xml:space="preserve">
<style type="text/css">
	.st0{fill:#A3A3A3;}
	.st1{fill:#010101;}
</style>
<path class="st0" d="M31.2,0C14,0,0,14,0,31.2s14,31.2,31.2,31.2s31.2-14,31.2-31.2S48.4,0,31.2,0z M31.2,60.9
	c-16.4,0-29.8-13.3-29.8-29.8c0-16.4,13.3-29.8,29.8-29.8C47.6,1.3,61,14.6,61,31.1C60.9,47.6,47.6,60.9,31.2,60.9z"/>
<g>
	<path class="st1" d="M26.6,38.5c-1,0-2.1,0-3.1,0c-0.7,0-1.1-0.5-1-1.1c0-0.7,0.5-1,1-1c0.8,0,1.5-0.2,2.3,0
		c1.5,0.2,2.4-0.3,2.3-2.1c-1.3,0-2.8,0-4.1,0c-0.8,0-1.5-0.2-1.5-1.1c0-0.8,0.7-1,1.3-1c1,0,2-0.2,2.9,0c2,0.3,3.4-0.3,4.7-2.1
		c-2.4,0-4.7,0-7.2,0c-0.8,0-1.8,0.2-1.8-1c0-1.1,1-1,1.8-1c4.9,0,9.8-0.5,14.7,2c0-1.8,0-3.1,0-4.4c0-1.1-0.3-1.8-1.1-2.6
		c-1.8-1.8-3.6-3.6-5.4-5.4c-0.5-0.5-1-1-1.8-1c-3.4,0-6.9,0-10.3,0c-1.3,0-2.1,0.8-2.1,2.1c0,7.5,0,15,0,22.5
		c0,1.1,0.7,2.1,1.8,2.1c3.3,0.2,6.5,0,10.1,0c-1.3-1.5-2.1-2.8-2.4-4.4C27.6,38.7,27.2,38.5,26.6,38.5z M30.7,19.6
		c1.8,1.8,3.8,3.8,5.5,5.5c-1.1,0-2.6,0-3.9,0c-1,0-1.6-0.3-1.6-1.5C30.7,22.2,30.7,20.7,30.7,19.6z"/>
	<path class="st1" d="M43.6,43.9c-0.3-0.3-0.7-0.8-1.1-1.1c-1.1-1-2-1.8-0.8-3.4c0.3-0.5,0.3-1.1,0.3-1.5c0-4.1-3.1-6.9-6.7-6.7
		c-3.6,0.3-6.2,3.6-5.5,7.2c0.5,3.6,4.2,6.2,7.5,5.1c2.1-0.8,3.3-0.2,4.6,1.3c0.2,0.2,0.3,0.3,0.5,0.5c0.5,0.5,1,0.8,1.6,0.2
		C44.4,44.9,44.1,44.4,43.6,43.9z M35.7,41.6c-2.3,0-4.1-2-4.1-4.2c0-2.3,2-4.1,4.1-3.9c2.3,0,4.1,2,4.1,4.2
		C39.8,39.8,38,41.8,35.7,41.6z"/>
</g>
</svg>
