<?xml version="1.0" encoding="utf-8"?>
<!-- Generator: Adobe Illustrator 24.2.3, SVG Export Plug-In . SVG Version: 6.00 Build 0)  -->
<svg version="1.1" id="Layer_1" xmlns="http://www.w3.org/2000/svg" xmlns:xlink="http://www.w3.org/1999/xlink" x="0px" y="0px"
	 viewBox="0 0 153.5 60.2" style="enable-background:new 0 0 153.5 60.2;" xml:space="preserve">
<style type="text/css">
	.st0{fill:#FFFFFF;}
	.st1{clip-path:url(#SVGID_2_);fill:url(#SVGID_3_);}
	.st2{fill:#0F71B2;}
	.st3{fill:#221F1F;}
	.st4{fill:#E12A35;}
	.st5{fill:#1673B1;}
	.st6{fill-rule:evenodd;clip-rule:evenodd;fill:#FFFFFF;}
	.st7{fill:#CE0E2D;}
</style>
<g>
	<path class="st0" d="M153.5,0H52.2c-7,0-15.6,4.3-19.1,9.7L0,60.2h153.5V0z"/>
	<g>
		<defs>
			<path id="SVGID_1_" d="M123.4,14.7L123.4,14.7L123.4,14.7L123.4,14.7c-0.1,0-0.1,0-0.2,0c-0.4,0.1-0.7,0.9-0.8,1.3
				c-0.3,0.7-1.7,6.8-4.1,6.4c-7.5-1.1-16.5,0.2-20.7,7.1c-2.4,4-3.5,11,1.1,14c5.1,3.3,11.9,3.3,17.6,1.7c3.4-1,6.5-2.8,8.4-5.7
				c2.4-3.6,2.8-7.7,2.5-11.9c-0.2-2-0.5-4.1-0.9-6c-0.3-1.4-0.6-2.8-1.1-4.2C124.9,16.6,124.4,14.7,123.4,14.7"/>
		</defs>
		<clipPath id="SVGID_2_">
			<use xlink:href="#SVGID_1_"  style="overflow:visible;"/>
		</clipPath>
		<linearGradient id="SVGID_3_" gradientUnits="userSpaceOnUse" x1="107.43" y1="27.2724" x2="119.44" y2="39.8924">
			<stop  offset="0" style="stop-color:#E42634"/>
			<stop  offset="1" style="stop-color:#AC1F27"/>
		</linearGradient>
		<rect x="94" y="14.7" class="st1" width="33.4" height="32.1"/>
	</g>
	<path class="st0" d="M97.5,41.2h3V27.4H99c-0.6,0.6-1.1,1.3-1.5,2.1c-0.2,0.4-0.4,0.7-0.6,1.1l0.6-0.2V41.2z"/>
	<path class="st0" d="M102.3,30.1v-2.6h9.2v2.3l-3.4,3.3c1.9,0.3,3.7,1.3,3.7,3.8c0,2.6-1.9,4.5-4.9,4.5c-2.4,0-4.1-1-5.3-2.4l2.1-2
		c0.9,1.1,1.9,1.6,3.3,1.6c1.1,0,1.9-0.6,1.9-1.7c0-1.1-1-1.8-2.7-1.8h-1.2l-0.5-1.9l3.2-3.3H102.3z"/>
	<path class="st0" d="M113.3,27.5h8.4v2.6h-5.8l-0.2,2.4c0.5-0.1,1-0.2,1.8-0.2c2.7,0,4.8,1.3,4.8,4.4c0,2.9-2,4.7-5.2,4.7
		c-2.2,0-3.8-0.8-5.1-2l1.8-2.2c1,0.9,2,1.5,3.2,1.5c1.4,0,2.3-0.7,2.3-1.9c0-1.2-1-1.9-2.4-1.9c-0.9,0-1.6,0.2-2.3,0.5l-1.7-1.1
		L113.3,27.5z"/>
	<path class="st2" d="M98.2,19c-0.1-0.2-0.4-0.3-0.6-0.3c-0.4,0-0.7,0.3-0.7,0.7c0,0.4,0.3,0.7,0.7,0.7c0.2,0,0.5-0.1,0.6-0.3v0.8
		c-0.2,0.1-0.4,0.1-0.6,0.1c-0.4,0-0.7-0.1-1-0.4c-0.3-0.3-0.4-0.6-0.4-1c0-0.4,0.1-0.7,0.4-1c0.3-0.3,0.6-0.4,1-0.4
		c0.2,0,0.4,0,0.6,0.1V19z"/>
	<path class="st2" d="M99.3,20.3l-0.2,0.5h-0.7l1-2.7h0.8l1,2.7h-0.7l-0.2-0.5H99.3z M99.8,18.9L99.8,18.9l-0.3,0.9h0.6L99.8,18.9z"
		/>
	<polygon class="st2" points="102.1,20.1 102.9,20.1 102.9,20.7 101.4,20.7 101.4,18.1 102.1,18.1 	"/>
	<polygon class="st2" points="103.8,20.1 104.7,20.1 104.7,20.7 103.1,20.7 103.1,18.1 103.8,18.1 	"/>
	<path class="st2" d="M108,19c-0.1-0.2-0.4-0.3-0.6-0.3c-0.4,0-0.7,0.3-0.7,0.7c0,0.4,0.3,0.7,0.7,0.7c0.2,0,0.5-0.1,0.6-0.3v0.8
		c-0.2,0.1-0.4,0.1-0.6,0.1c-0.4,0-0.7-0.1-1-0.4c-0.3-0.3-0.4-0.6-0.4-1c0-0.4,0.1-0.7,0.4-1c0.3-0.3,0.6-0.4,1-0.4
		c0.2,0,0.4,0,0.6,0.1V19z"/>
	<polygon class="st2" points="109.2,18.6 109.2,19.1 109.9,19.1 109.9,19.7 109.2,19.7 109.2,20.1 110,20.1 110,20.7 108.5,20.7 
		108.5,18.1 110,18.1 110,18.6 	"/>
	<polygon class="st2" points="110.4,18.1 111.1,18.1 112.4,19.7 112.4,19.7 112.4,18.1 113.1,18.1 113.1,20.7 112.4,20.7 
		111.1,19.1 111.1,19.1 111.1,20.7 110.4,20.7 	"/>
	<polygon class="st2" points="114.6,20.7 113.9,20.7 113.9,18.6 113.3,18.6 113.3,18.1 115.2,18.1 115.2,18.6 114.6,18.6 	"/>
	<polygon class="st2" points="116.1,18.6 116.1,19.1 116.9,19.1 116.9,19.7 116.1,19.7 116.1,20.1 117,20.1 117,20.7 115.4,20.7 
		115.4,18.1 117,18.1 117,18.6 	"/>
	<path class="st2" d="M119.6,20.7h-0.9l-0.7-1h0v1h-0.7v-2.7h1c0.5,0,0.9,0.3,0.9,0.8c0,0.4-0.2,0.7-0.6,0.8L119.6,20.7z
		 M118.1,19.3L118.1,19.3c0.3,0,0.5,0,0.5-0.3c0-0.3-0.3-0.3-0.5-0.3h-0.1V19.3z"/>
	<path class="st3" d="M96.6,14.3h1.1c0.6,0,1,0.3,1,0.9c0,0.7-0.4,1-1,1h-0.4v0.9h-0.7V14.3z M97.4,15.7h0.1c0.3,0,0.5,0,0.5-0.3
		c0-0.4-0.2-0.4-0.5-0.4h-0.1V15.7z"/>
	<polygon class="st3" points="99.9,15 99.9,15.5 100.7,15.5 100.7,16.1 99.9,16.1 99.9,16.6 100.7,16.6 100.7,17.2 99.1,17.2 
		99.1,14.3 100.7,14.3 100.7,15 	"/>
	<path class="st3" d="M103.6,17.2h-0.9l-0.7-1.1h0v1.1h-0.7v-2.9h1.1c0.6,0,1,0.3,1,0.9c0,0.4-0.2,0.7-0.6,0.8L103.6,17.2z
		 M102,15.6L102,15.6c0.3,0,0.6,0,0.6-0.4c0-0.3-0.3-0.4-0.5-0.4H102V15.6z"/>
	<polygon class="st3" points="104.9,17.2 104.2,17.2 104.2,15 103.6,15 103.6,14.3 105.5,14.3 105.5,15 104.9,15 	"/>
	<path class="st3" d="M106.3,16.7l-0.2,0.5h-0.8l1.1-2.9h0.8l1.1,2.9h-0.8l-0.2-0.5H106.3z M106.8,15.2L106.8,15.2l-0.3,0.9h0.6
		L106.8,15.2z"/>
	<polygon class="st3" points="108.9,14.3 109.6,14.3 110.2,15.9 110.8,14.3 111.5,14.3 112,17.2 111.2,17.2 111,15.6 111,15.6 
		110.3,17.2 110,17.2 109.4,15.6 109.4,15.6 109.1,17.2 108.4,17.2 	"/>
	<rect x="112.3" y="14.3" class="st3" width="0.7" height="2.9"/>
	<polygon class="st3" points="113.5,14.3 114.3,14.3 115.6,16.1 115.6,16.1 115.6,14.3 116.4,14.3 116.4,17.2 115.6,17.2 
		114.3,15.5 114.3,15.5 114.3,17.2 113.5,17.2 	"/>
	<path class="st3" d="M117.6,16.7l-0.2,0.5h-0.8l1.1-2.9h0.8l1.1,2.9h-0.8l-0.2-0.5H117.6z M118.1,15.2L118.1,15.2l-0.3,0.9h0.6
		L118.1,15.2z"/>
	<path class="st4" d="M81.1,45.9H61.3c-2.2,0-3.9-1.8-3.9-3.9V22.2c0-2.2,1.7-3.9,3.9-3.9h19.9c2.2,0,3.9,1.7,3.9,3.9V42
		C85,44.2,83.3,45.9,81.1,45.9"/>
	<path class="st5" d="M81.1,18.3H61.3c-2.2,0-3.9,1.8-3.9,3.9V42c0,2.2,1.7,3.9,3.9,3.9H65c1.7,0,3.3-0.8,4.5-2.1l12.2-14.5
		c0.6-0.7,1.4-1.1,2.3-1.1H85v-5.2v-0.4v-0.6C85,20,83.3,18.3,81.1,18.3"/>
	<path class="st0" d="M68.4,25.1l-2.2,2.7l-1.1-2.6c-0.2-0.6-0.8-1-1.6-1h-1.3l-2,9.4h0.3c1.2,0,2.3-1,2.6-2.1l0.7-3.2l1.2,2.6
		c0.1,0.2,0.3,0.3,0.5,0.3c0.2,0,0.4-0.1,0.6-0.3l2.3-2.7l-1.1,5.3h0.3c1.2,0,2.3-1,2.6-2.1l1.6-7.3h-1.3
		C69.6,24.1,68.9,24.5,68.4,25.1"/>
	<path class="st0" d="M82.4,25.2h-1.4c-0.9,0-1.7,0.4-2.3,1.1l-2,2.4l-0.8,1l-0.9-2.4c-0.2-0.6-0.8-1-1.5-1h-1.6l2.3,5.5l-1.5,1.7
		c-0.7,0.9-0.6,2.2,0.2,2.9l2-2.3c0,0,0,0,0,0l0.2-0.2l0,0l6.5-7.6h0L82.4,25.2z"/>
	<path class="st6" d="M61.9,37L61.9,37h-1.1l-0.5,2.7h0.6l0.2-0.9h0.4h0c0.6,0,1.1-0.3,1.2-0.9C62.9,37.2,62.5,37,61.9,37
		 M61.6,38.2C61.6,38.2,61.6,38.2,61.6,38.2h-0.4l0.1-0.7h0.3h0.1c0.2,0,0.4,0.1,0.3,0.3C62.1,38.2,61.8,38.2,61.6,38.2z"/>
	<polygon class="st6" points="63.8,37.6 63.8,38.1 64.9,38.1 64.7,38.7 63.6,38.7 63.5,39.1 64.7,39.1 64.6,39.7 62.8,39.7 63.3,37 
		65.1,37 65,37.6 	"/>
	<path class="st6" d="M66.8,38.6c0.4-0.1,0.7-0.3,0.8-0.8c0.1-0.6-0.2-0.8-0.7-0.8h-0.2h-1l-0.5,2.7h0.6l0.2-1.1h0l0.1,0l0.2,0.3
		l0.4,0.7h0.8L66.8,38.6z M66.4,38.2C66.4,38.2,66.4,38.2,66.4,38.2l-0.4,0l0.1-0.7h0.3h0.1c0.2,0,0.4,0.1,0.3,0.3
		C66.8,38.1,66.6,38.2,66.4,38.2z"/>
	<polygon class="st6" points="68.8,39.7 68.2,39.7 68.6,37.6 67.9,37.6 68,37 70.1,37 70,37.6 69.3,37.6 	"/>
	<path class="st6" d="M71.6,37h-0.7l-1.5,2.7h0.7l0.3-0.5h0.9l0.1,0.5H72L71.6,37z M70.6,38.7l0.4-0.9h0h0l0.1,0.9H70.6z"/>
	<polygon class="st6" points="73.2,37 73.8,37 74,38.5 74.8,37 75.5,37 75.3,39.7 74.7,39.7 74.8,38.2 74.8,38.2 73.9,39.7 
		73.6,39.7 73.4,38.2 73.4,38.2 72.8,39.7 72.2,39.7 	"/>
	<polygon class="st6" points="76.4,39.7 75.7,39.7 76.3,37 76.9,37 	"/>
	<polygon class="st6" points="77.5,37 78.1,37 79,38.7 79,38.7 79.3,37 80,37 79.4,39.7 78.8,39.7 77.9,38.1 77.9,38.1 77.6,39.7 
		77,39.7 	"/>
	<path class="st6" d="M82,37h-0.7l-1.5,2.7h0.7l0.3-0.5h0.9l0.1,0.5h0.7L82,37z M81,38.7l0.4-0.9h0h0l0.1,0.9H81z"/>
</g>
</svg>
