<?xml version="1.0" encoding="utf-8"?>
<!-- Generator: Adobe Illustrator 24.2.3, SVG Export Plug-In . SVG Version: 6.00 Build 0)  -->
<svg version="1.1" id="Layer_1" xmlns="http://www.w3.org/2000/svg" xmlns:xlink="http://www.w3.org/1999/xlink" x="0px" y="0px"
	 viewBox="0 0 199 60.2" style="enable-background:new 0 0 199 60.2;" xml:space="preserve">
<style type="text/css">
	.st0{fill:#FFFFFF;}
	.st1{clip-path:url(#SVGID_2_);fill:url(#SVGID_3_);}
	.st2{fill:#0F71B2;}
	.st3{fill:#221F1F;}
	.st4{fill:#E12A35;}
	.st5{fill:#1673B1;}
	.st6{fill-rule:evenodd;clip-rule:evenodd;fill:#FFFFFF;}
	.st7{fill:#CE0E2D;}
</style>
<g>
	<path class="st7" d="M0,60.2h199L165.9,9.7C162.4,4.3,153.8,0,146.8,0H0V60.2z"/>
	<g>
		<path class="st0" d="M24.5,30.1h1l0.7,2.2c0,0,0,0,0,0.1c0.1,0.3,0.1,0.5,0.1,0.6c0-0.1,0.1-0.2,0.1-0.3c0.1-0.1,0.1-0.2,0.2-0.4
			l1.4-2.4l0.7,2.5c0,0.1,0.1,0.2,0.1,0.3c0,0.1,0,0.2,0,0.3c0-0.1,0.1-0.2,0.1-0.3c0-0.1,0.1-0.2,0.1-0.3l1.3-2.2h1.1l-2.9,4.5
			l-0.7-2.4c0-0.1-0.1-0.2-0.1-0.3c0-0.1,0-0.2-0.1-0.3c-0.1,0.1-0.1,0.3-0.2,0.4c-0.1,0.1-0.1,0.2-0.1,0.2L26,34.6L24.5,30.1z"/>
		<path class="st0" d="M31.4,30.1h1l0.7,2.2c0,0,0,0,0,0.1c0.1,0.3,0.1,0.5,0.1,0.6c0-0.1,0.1-0.2,0.1-0.3c0.1-0.1,0.1-0.2,0.2-0.4
			l1.4-2.4l0.7,2.5c0,0.1,0.1,0.2,0.1,0.3c0,0.1,0,0.2,0,0.3c0-0.1,0.1-0.2,0.1-0.3c0-0.1,0.1-0.2,0.1-0.3l1.3-2.2h1.1l-2.9,4.5
			l-0.7-2.4c0-0.1-0.1-0.2-0.1-0.3c0-0.1,0-0.2-0.1-0.3c-0.1,0.1-0.1,0.3-0.2,0.4c-0.1,0.1-0.1,0.2-0.1,0.2L33,34.6L31.4,30.1z"/>
		<path class="st0" d="M38.4,30.1h1l0.7,2.2c0,0,0,0,0,0.1c0.1,0.3,0.1,0.5,0.1,0.6c0-0.1,0.1-0.2,0.1-0.3c0.1-0.1,0.1-0.2,0.2-0.4
			l1.4-2.4l0.7,2.5c0,0.1,0.1,0.2,0.1,0.3c0,0.1,0,0.2,0,0.3c0-0.1,0.1-0.2,0.1-0.3c0-0.1,0.1-0.2,0.1-0.3l1.3-2.2h1.1l-2.9,4.5
			l-0.7-2.4c0-0.1-0.1-0.2-0.1-0.3c0-0.1,0-0.2-0.1-0.3c-0.1,0.1-0.1,0.3-0.2,0.4c-0.1,0.1-0.1,0.2-0.1,0.2l-1.4,2.4L38.4,30.1z"/>
		<path class="st0" d="M45.1,33.9c0-0.2,0.1-0.3,0.2-0.4c0.1-0.1,0.3-0.2,0.4-0.2c0.2,0,0.3,0.1,0.4,0.2c0.1,0.1,0.2,0.3,0.2,0.4
			c0,0.2-0.1,0.3-0.2,0.4c-0.1,0.1-0.3,0.2-0.4,0.2c-0.2,0-0.3-0.1-0.4-0.2C45.2,34.2,45.1,34,45.1,33.9"/>
		<path class="st0" d="M48.2,30.1h0.9l0,0.4c0.2-0.2,0.4-0.4,0.6-0.4c0.2-0.1,0.5-0.1,0.7-0.1c0.6,0,1,0.2,1.3,0.5
			c0.3,0.3,0.5,0.8,0.5,1.5c0,0.8-0.2,1.4-0.6,1.8c-0.4,0.5-0.9,0.7-1.5,0.7c-0.3,0-0.6-0.1-0.8-0.2c-0.2-0.1-0.5-0.3-0.7-0.5
			l-0.3,2.6h-1L48.2,30.1z M51.2,32.1c0-0.4-0.1-0.7-0.3-1c-0.2-0.2-0.4-0.3-0.8-0.3c-0.4,0-0.7,0.2-0.9,0.5
			c-0.2,0.3-0.3,0.7-0.3,1.3c0,0.4,0.1,0.7,0.3,0.9c0.2,0.2,0.5,0.3,0.8,0.3c0.4,0,0.7-0.1,0.9-0.4C51.1,33,51.2,32.6,51.2,32.1z"/>
		<path class="st0" d="M56.1,33.1l0.7,0.5c-0.2,0.3-0.5,0.6-0.8,0.7c-0.3,0.2-0.6,0.2-1,0.2c-0.6,0-1.1-0.2-1.5-0.6
			c-0.4-0.4-0.6-0.9-0.6-1.5c0-0.7,0.2-1.3,0.7-1.8c0.4-0.5,1-0.7,1.7-0.7c0.6,0,1,0.2,1.4,0.5c0.3,0.4,0.5,0.8,0.5,1.4
			c0,0.1,0,0.1,0,0.2c0,0.1,0,0.2,0,0.3h-3.3c0,0.4,0.1,0.7,0.3,0.9c0.2,0.2,0.5,0.3,0.8,0.3c0.2,0,0.4-0.1,0.6-0.2
			C55.8,33.4,56,33.3,56.1,33.1 M54,31.7h2.2c0-0.3-0.1-0.5-0.3-0.7c-0.2-0.2-0.4-0.2-0.7-0.2c-0.3,0-0.6,0.1-0.8,0.3
			C54.2,31.2,54,31.5,54,31.7z"/>
		<path class="st0" d="M60.8,31c-0.1,0-0.1-0.1-0.2-0.1c-0.1,0-0.2,0-0.2,0c-0.3,0-0.6,0.1-0.8,0.4c-0.2,0.3-0.3,0.6-0.4,1.2l-0.3,2
			h-1l0.6-4.3h0.9l-0.1,0.6c0.2-0.2,0.4-0.4,0.6-0.5C60,30,60.3,30,60.5,30c0.1,0,0.2,0,0.3,0c0.1,0,0.2,0.1,0.3,0.1L60.8,31z"/>
		<polygon class="st0" points="61.3,34.4 61.7,30.9 61,30.9 61.1,30.1 61.8,30.1 62,28.5 63,28.5 62.8,30.1 63.6,30.1 63.5,30.9 
			62.7,30.9 62.2,34.4 		"/>
		<path class="st0" d="M67.8,34.4h-1l0.1-0.5c-0.2,0.2-0.4,0.4-0.6,0.5c-0.2,0.1-0.5,0.2-0.8,0.2c-0.6,0-1-0.2-1.3-0.5
			c-0.3-0.4-0.5-0.9-0.5-1.5c0-0.8,0.2-1.4,0.6-1.8c0.4-0.5,0.9-0.7,1.5-0.7c0.3,0,0.5,0.1,0.8,0.2c0.2,0.1,0.5,0.3,0.7,0.5l0.1-0.6
			h1L67.8,34.4z M64.9,32.4c0,0.4,0.1,0.7,0.3,1c0.2,0.2,0.5,0.3,0.8,0.3c0.4,0,0.7-0.2,0.9-0.5c0.2-0.3,0.3-0.7,0.3-1.3
			c0-0.4-0.1-0.7-0.3-0.9c-0.2-0.2-0.5-0.3-0.8-0.3c-0.4,0-0.7,0.1-0.9,0.4C65,31.5,64.9,31.9,64.9,32.4z"/>
		<path class="st0" d="M74.7,34.4l0.3-2.5c0-0.1,0-0.1,0-0.2c0-0.1,0-0.1,0-0.2c0-0.3-0.1-0.5-0.2-0.7c-0.1-0.2-0.3-0.2-0.5-0.2
			c-0.4,0-0.6,0.1-0.8,0.4c-0.2,0.3-0.3,0.6-0.4,1.2l-0.3,2.1h-1l0.3-2.5c0-0.1,0-0.2,0-0.2c0,0,0-0.1,0-0.1c0-0.3-0.1-0.5-0.2-0.7
			c-0.1-0.2-0.3-0.2-0.5-0.2c-0.3,0-0.6,0.1-0.8,0.4c-0.2,0.3-0.3,0.7-0.4,1.2l-0.3,2.1h-1l0.6-4.3h1l-0.1,0.5
			c0.2-0.2,0.5-0.4,0.7-0.5C71.5,30,71.7,30,72,30c0.3,0,0.6,0.1,0.8,0.2c0.2,0.1,0.3,0.3,0.4,0.6c0.3-0.3,0.5-0.5,0.8-0.6
			c0.3-0.1,0.5-0.2,0.8-0.2c0.4,0,0.7,0.1,0.9,0.4c0.2,0.2,0.3,0.6,0.3,1c0,0.1,0,0.2,0,0.3c0,0.1,0,0.3,0,0.5l-0.3,2.3H74.7z"/>
		<path class="st0" d="M77,34.4l0.6-4.3h1L78,34.4H77z M77.7,28.6c0-0.2,0.1-0.3,0.2-0.4c0.1-0.1,0.2-0.2,0.4-0.2
			c0.2,0,0.3,0.1,0.4,0.2c0.1,0.1,0.2,0.2,0.2,0.4c0,0.2-0.1,0.3-0.2,0.4c-0.1,0.1-0.2,0.2-0.4,0.2c-0.2,0-0.3-0.1-0.4-0.2
			C77.7,28.9,77.7,28.8,77.7,28.6z"/>
		<path class="st0" d="M82.4,34.4l0.3-2.5c0,0,0-0.1,0-0.1c0,0,0-0.1,0-0.2c0-0.3-0.1-0.5-0.2-0.6c-0.1-0.1-0.3-0.2-0.6-0.2
			c-0.4,0-0.7,0.1-0.9,0.4c-0.2,0.3-0.4,0.7-0.4,1.2l-0.3,2.1h-1l0.6-4.3h0.9l-0.1,0.5c0.2-0.2,0.5-0.4,0.8-0.5
			c0.3-0.1,0.5-0.2,0.8-0.2c0.4,0,0.8,0.1,1,0.3c0.2,0.2,0.4,0.6,0.4,1c0,0.1,0,0.2,0,0.4c0,0.1,0,0.3-0.1,0.5l-0.3,2.2H82.4z"/>
		<path class="st0" d="M88.6,34.4h-1l0.1-0.5c-0.2,0.2-0.4,0.4-0.6,0.5c-0.2,0.1-0.5,0.2-0.8,0.2c-0.6,0-1-0.2-1.3-0.5
			c-0.3-0.4-0.5-0.9-0.5-1.5c0-0.8,0.2-1.4,0.6-1.8c0.4-0.5,0.9-0.7,1.5-0.7c0.3,0,0.5,0.1,0.8,0.2c0.2,0.1,0.5,0.3,0.7,0.5l0.1-0.6
			h1L88.6,34.4z M85.7,32.4c0,0.4,0.1,0.7,0.3,1c0.2,0.2,0.5,0.3,0.8,0.3c0.4,0,0.7-0.2,0.9-0.5c0.2-0.3,0.3-0.7,0.3-1.3
			c0-0.4-0.1-0.7-0.3-0.9c-0.2-0.2-0.5-0.3-0.8-0.3c-0.4,0-0.7,0.1-0.9,0.4C85.8,31.5,85.7,31.9,85.7,32.4z"/>
		<polygon class="st0" points="90.9,34.4 90,34.4 90.9,27.4 91.9,27.4 		"/>
		<path class="st0" d="M92.8,30.1h1l-0.2,1.8c0,0,0,0.1,0,0.2c-0.1,0.4-0.1,0.6-0.1,0.8c0,0.3,0.1,0.5,0.2,0.6
			c0.2,0.1,0.4,0.2,0.7,0.2c0.4,0,0.7-0.1,0.9-0.3c0.2-0.2,0.3-0.6,0.4-1.2l0.3-2h1l-0.3,2.2c-0.1,0.6-0.2,0.9-0.3,1.2
			c-0.1,0.2-0.2,0.4-0.4,0.6c-0.2,0.2-0.4,0.3-0.7,0.4c-0.3,0.1-0.6,0.1-0.9,0.1c-0.6,0-1-0.1-1.3-0.4c-0.3-0.3-0.5-0.7-0.5-1.2
			c0-0.1,0-0.4,0.1-0.8l0,0L92.8,30.1z"/>
		<path class="st0" d="M98.5,27.4h1L99,30.5c0.2-0.2,0.4-0.3,0.6-0.4c0.2-0.1,0.4-0.1,0.7-0.1c0.6,0,1,0.2,1.3,0.5
			c0.3,0.4,0.5,0.9,0.5,1.5c0,0.8-0.2,1.4-0.6,1.9c-0.4,0.5-0.9,0.7-1.5,0.7c-0.3,0-0.5-0.1-0.8-0.2c-0.2-0.1-0.5-0.3-0.7-0.5
			l-0.1,0.5h-1L98.5,27.4z M101.1,32.1c0-0.4-0.1-0.7-0.3-1c-0.2-0.2-0.4-0.3-0.8-0.3c-0.4,0-0.7,0.2-0.9,0.5
			c-0.2,0.3-0.3,0.7-0.3,1.3c0,0.4,0.1,0.7,0.3,0.9c0.2,0.2,0.5,0.3,0.8,0.3c0.4,0,0.7-0.2,0.9-0.5C101,33,101.1,32.6,101.1,32.1z"
			/>
		<path class="st0" d="M105.7,31c-0.1,0-0.1-0.1-0.2-0.1c-0.1,0-0.2,0-0.2,0c-0.3,0-0.6,0.1-0.8,0.4c-0.2,0.3-0.3,0.6-0.4,1.2
			l-0.3,2h-1l0.6-4.3h0.9l-0.1,0.6c0.2-0.2,0.4-0.4,0.6-0.5c0.2-0.1,0.4-0.2,0.6-0.2c0.1,0,0.2,0,0.3,0c0.1,0,0.2,0.1,0.3,0.1
			L105.7,31z"/>
		<path class="st0" d="M106.2,34.4l0.6-4.3h1l-0.6,4.3H106.2z M106.8,28.6c0-0.2,0.1-0.3,0.2-0.4c0.1-0.1,0.2-0.2,0.4-0.2
			c0.2,0,0.3,0.1,0.4,0.2c0.1,0.1,0.2,0.2,0.2,0.4c0,0.2-0.1,0.3-0.2,0.4c-0.1,0.1-0.2,0.2-0.4,0.2c-0.2,0-0.3-0.1-0.4-0.2
			C106.9,28.9,106.8,28.8,106.8,28.6z"/>
		<path class="st0" d="M112.2,31.3c-0.2-0.2-0.4-0.3-0.6-0.4c-0.2-0.1-0.4-0.1-0.6-0.1c-0.4,0-0.8,0.2-1.1,0.5
			c-0.3,0.3-0.4,0.7-0.4,1.2c0,0.4,0.1,0.7,0.3,0.9c0.2,0.2,0.5,0.3,0.8,0.3c0.2,0,0.4,0,0.7-0.1c0.2-0.1,0.5-0.2,0.7-0.3l-0.2,1
			c-0.2,0.1-0.4,0.2-0.6,0.2c-0.2,0-0.4,0.1-0.6,0.1c-0.6,0-1.2-0.2-1.5-0.6c-0.4-0.4-0.6-0.9-0.6-1.5c0-0.7,0.2-1.3,0.7-1.8
			c0.5-0.5,1.1-0.7,1.8-0.7c0.3,0,0.5,0,0.8,0.1c0.2,0.1,0.5,0.2,0.7,0.3L112.2,31.3z"/>
		<path class="st0" d="M116.8,34.4h-1l0.1-0.5c-0.2,0.2-0.4,0.4-0.6,0.5c-0.2,0.1-0.5,0.2-0.8,0.2c-0.6,0-1-0.2-1.3-0.5
			c-0.3-0.4-0.5-0.9-0.5-1.5c0-0.8,0.2-1.4,0.6-1.8c0.4-0.5,0.9-0.7,1.5-0.7c0.3,0,0.5,0.1,0.8,0.2c0.2,0.1,0.5,0.3,0.7,0.5l0.1-0.6
			h1L116.8,34.4z M113.8,32.4c0,0.4,0.1,0.7,0.3,1c0.2,0.2,0.5,0.3,0.8,0.3c0.4,0,0.7-0.2,0.9-0.5c0.2-0.3,0.3-0.7,0.3-1.3
			c0-0.4-0.1-0.7-0.3-0.9c-0.2-0.2-0.5-0.3-0.8-0.3c-0.4,0-0.7,0.1-0.9,0.4C113.9,31.5,113.8,31.9,113.8,32.4z"/>
		<path class="st0" d="M121.2,34.4l0.3-2.5c0,0,0-0.1,0-0.1c0,0,0-0.1,0-0.2c0-0.3-0.1-0.5-0.2-0.6c-0.1-0.1-0.3-0.2-0.6-0.2
			c-0.4,0-0.7,0.1-0.9,0.4c-0.2,0.3-0.4,0.7-0.4,1.2l-0.3,2.1h-1l0.6-4.3h0.9l-0.1,0.5c0.2-0.2,0.5-0.4,0.8-0.5
			c0.3-0.1,0.5-0.2,0.8-0.2c0.4,0,0.8,0.1,1,0.3c0.2,0.2,0.4,0.6,0.4,1c0,0.1,0,0.2,0,0.4c0,0.1,0,0.3-0.1,0.5l-0.3,2.2H121.2z"/>
		<polygon class="st0" points="123.5,34.4 124,30.9 123.2,30.9 123.3,30.1 124.1,30.1 124.3,28.5 125.2,28.5 125,30.1 125.8,30.1 
			125.7,30.9 124.9,30.9 124.5,34.4 		"/>
		<path class="st0" d="M126.3,33.1c0.2,0.2,0.3,0.4,0.5,0.5c0.2,0.1,0.4,0.2,0.6,0.2c0.2,0,0.4,0,0.5-0.1c0.1-0.1,0.2-0.2,0.2-0.4
			c0-0.2-0.2-0.4-0.7-0.7l0,0c-0.4-0.2-0.7-0.5-0.9-0.6c-0.1-0.2-0.2-0.4-0.2-0.6c0-0.4,0.1-0.7,0.4-1c0.3-0.3,0.7-0.4,1.2-0.4
			c0.3,0,0.6,0.1,0.8,0.2c0.2,0.1,0.5,0.3,0.7,0.5l-0.6,0.6c-0.1-0.2-0.3-0.3-0.5-0.4c-0.2-0.1-0.4-0.1-0.5-0.1
			c-0.2,0-0.3,0-0.4,0.1c-0.1,0.1-0.2,0.2-0.2,0.3c0,0.2,0.2,0.4,0.6,0.6c0.1,0.1,0.3,0.1,0.3,0.2c0.3,0.2,0.6,0.4,0.7,0.5
			c0.1,0.2,0.2,0.4,0.2,0.7c0,0.4-0.1,0.8-0.4,1c-0.3,0.3-0.7,0.4-1.2,0.4c-0.3,0-0.6-0.1-0.9-0.2c-0.3-0.1-0.5-0.3-0.7-0.6
			L126.3,33.1z"/>
		<path class="st0" d="M130,33.9c0-0.2,0.1-0.3,0.2-0.4c0.1-0.1,0.3-0.2,0.4-0.2c0.2,0,0.3,0.1,0.4,0.2c0.1,0.1,0.2,0.3,0.2,0.4
			c0,0.2-0.1,0.3-0.2,0.4c-0.1,0.1-0.3,0.2-0.4,0.2c-0.2,0-0.3-0.1-0.4-0.2C130.1,34.2,130,34,130,33.9"/>
		<path class="st0" d="M136.2,31.3c-0.2-0.2-0.4-0.3-0.6-0.4c-0.2-0.1-0.4-0.1-0.6-0.1c-0.4,0-0.8,0.2-1.1,0.5
			c-0.3,0.3-0.4,0.7-0.4,1.2c0,0.4,0.1,0.7,0.3,0.9c0.2,0.2,0.5,0.3,0.8,0.3c0.2,0,0.4,0,0.7-0.1c0.2-0.1,0.5-0.2,0.7-0.3l-0.2,1
			c-0.2,0.1-0.4,0.2-0.6,0.2c-0.2,0-0.4,0.1-0.6,0.1c-0.6,0-1.2-0.2-1.5-0.6c-0.4-0.4-0.6-0.9-0.6-1.5c0-0.7,0.2-1.3,0.7-1.8
			c0.5-0.5,1.1-0.7,1.8-0.7c0.3,0,0.5,0,0.8,0.1c0.2,0.1,0.5,0.2,0.7,0.3L136.2,31.3z"/>
		<path class="st0" d="M139.2,30c0.7,0,1.2,0.2,1.6,0.6c0.4,0.4,0.6,0.9,0.6,1.6c0,0.7-0.2,1.3-0.7,1.8c-0.5,0.5-1.1,0.7-1.8,0.7
			c-0.7,0-1.2-0.2-1.6-0.6c-0.4-0.4-0.6-0.9-0.6-1.5c0-0.7,0.2-1.3,0.7-1.8C137.9,30.2,138.5,30,139.2,30 M139.2,30.8
			c-0.4,0-0.8,0.2-1,0.5c-0.3,0.3-0.4,0.7-0.4,1.2c0,0.4,0.1,0.7,0.3,0.9c0.2,0.2,0.5,0.3,0.8,0.3c0.4,0,0.8-0.1,1.1-0.4
			c0.3-0.3,0.4-0.7,0.4-1.2c0-0.4-0.1-0.7-0.3-0.9C139.9,30.9,139.6,30.8,139.2,30.8z"/>
		<path class="st0" d="M147.7,34.4l0.3-2.5c0-0.1,0-0.1,0-0.2c0-0.1,0-0.1,0-0.2c0-0.3-0.1-0.5-0.2-0.7c-0.1-0.2-0.3-0.2-0.5-0.2
			c-0.4,0-0.6,0.1-0.8,0.4c-0.2,0.3-0.3,0.6-0.4,1.2l-0.3,2.1h-1l0.3-2.5c0-0.1,0-0.2,0-0.2c0,0,0-0.1,0-0.1c0-0.3-0.1-0.5-0.2-0.7
			c-0.1-0.2-0.3-0.2-0.5-0.2c-0.3,0-0.6,0.1-0.8,0.4c-0.2,0.3-0.3,0.7-0.4,1.2l-0.3,2.1h-1l0.6-4.3h1l-0.1,0.5
			c0.2-0.2,0.5-0.4,0.7-0.5c0.2-0.1,0.5-0.2,0.8-0.2c0.3,0,0.6,0.1,0.8,0.2c0.2,0.1,0.3,0.3,0.4,0.6c0.3-0.3,0.5-0.5,0.8-0.6
			c0.3-0.1,0.5-0.2,0.8-0.2c0.4,0,0.7,0.1,0.9,0.4c0.2,0.2,0.3,0.6,0.3,1c0,0.1,0,0.2,0,0.3c0,0.1,0,0.3,0,0.5l-0.3,2.3H147.7z"/>
	</g>
</g>
</svg>
